:SAMPLES-PER-SECOND 30
:FULLY-SPECIFIED
:DEGREES
93
root  -5.58672 37.8985 -7.4972 39.5035 -85.0872 -43.5592
RightUpLeg  -26.5031 -15.9264 9.17077
RightLeg  23.246 0.116792 -0.616361
RightFoot  4.59422 1.12842 -8.02229
RightToes  4.07452e-010 0 -3.6325e-017
Spine  7.13016 -6.44068 6.47598
Spine1  6.5936 -6.65159 1.70971
HEad  -8.02809 5.86191 -2.20496
LeftShoulder1  7.23291 -10.6784 -44.4001
LeftArm  -3.30984 7.06481 -26.65
LeftForeArm  164.17 -76.9618 -137.674
LeftHand  -0.244104 0.0205437 5.32207
RightShoulder  3.4745 6.42819 28.9932
RightArm  0.542138 -44.1652 15.3018
RightForeArm  21.7183 64.7772 22.5924
RightHand  0.127317 -8.27376 -6.53888
LeftUpLeg  16.4968 11.9676 10.4417
LeftLeg  38.621 -1.09366 -0.538673
LeftFoot  5.78077 2.3239 -15.6582
LeftToes  1.0186e-010 1.09309e-010 2.97394e-011
94
root  -7.34947 37.4359 -7.54423 48.2221 -82.4772 -52.8391
RightUpLeg  -27.6976 -14.5125 10.8746
RightLeg  31.8567 -2.62496 -2.00406
RightFoot  1.21018 1.14119 -10.2222
RightToes  4.07452e-010 0 -3.6325e-017
Spine  8.31651 -6.63891 8.99848
Spine1  6.63667 -6.84104 3.53053
HEad  -10.5161 5.50175 -2.79296
LeftShoulder1  7.79207 -10.9576 -46.9996
LeftArm  -5.29803 6.95279 -27.7589
LeftForeArm  142.735 -81.0061 -107.863
LeftHand  -0.244104 0.0205437 5.32207
RightShoulder  3.83758 6.62192 31.9398
RightArm  -5.24479 -39.0593 15.2418
RightForeArm  15.6509 55.7507 15.3766
RightHand  -0.0132355 -5.58194 -8.58316
LeftUpLeg  10.0837 8.21385 12.487
LeftLeg  51.6891 0.129352 0.642166
LeftFoot  9.79267 2.76702 -15.1128
LeftToes  1.0186e-010 1.09309e-010 2.97394e-011
95
root  -8.9526 37.4145 -7.66519 43.3341 -80.9612 -48.2685
RightUpLeg  -26.4446 -15.1001 11.1521
RightLeg  35.9847 -3.54178 -3.01831
RightFoot  -4.68592 0.54713 -9.85722
RightToes  4.07452e-010 0 -3.6325e-017
Spine  9.35149 -6.45423 8.49291
Spine1  6.49065 -7.0188 6.15547
HEad  -11.8584 5.02155 -2.57714
LeftShoulder1  8.38506 -11.4938 -48.8031
LeftArm  -7.46224 8.10961 -29.4353
LeftForeArm  94.6902 -79.7383 -54.6923
LeftHand  -0.244104 0.0205437 5.32207
RightShoulder  4.34317 7.17138 34.7256
RightArm  -11.9073 -33.2603 17.3835
RightForeArm  10.7308 45.1129 10.4712
RightHand  -0.357643 -1.86285 -11.5662
LeftUpLeg  2.53338 4.27844 11.7344
LeftLeg  62.475 0.734745 2.13791
LeftFoot  9.12009 1.99992 -11.2799
LeftToes  1.0186e-010 1.09309e-010 2.97394e-011
96
root  -10.5715 37.8274 -7.76335 36.8005 -80.553 -42.0566
RightUpLeg  -22.5944 -16.5464 10.1828
RightLeg  35.3001 -3.37841 -2.84709
RightFoot  -7.54721 0.245804 -8.99633
RightToes  4.07452e-010 0 -3.6325e-017
Spine  9.34462 -5.86607 8.05064
Spine1  6.67802 -6.45492 6.57646
HEad  -11.9271 3.82542 -1.75049
LeftShoulder1  8.76675 -11.927 -49.5946
LeftArm  -8.35615 9.22053 -30.6104
LeftForeArm  66.3212 -71.5442 -25.9567
LeftHand  -0.244104 0.0205437 5.32207
RightShoulder  4.77139 7.73141 36.4778
RightArm  -17.8426 -28.4243 21.3749
RightForeArm  3.88631 35.7921 7.83563
RightHand  -0.764358 1.07812 -13.877
LeftUpLeg  -4.15847 1.30518 9.76647
LeftLeg  68.4561 0.953835 3.43806
LeftFoot  5.68037 1.06345 -7.35597
LeftToes  1.0186e-010 1.09309e-010 2.97394e-011
97
root  -12.1893 38.4823 -7.8088 33.5045 -80.9713 -38.9437
RightUpLeg  -17.7637 -17.892 8.88065
RightLeg  32.1365 -2.47925 -1.94637
RightFoot  -7.68683 0.219587 -8.49232
RightToes  4.07452e-010 0 -3.6325e-017
Spine  8.52391 -4.83652 8.99323
Spine1  7.08106 -4.96121 4.84944
HEad  -11.2339 1.90417 -1.21964
LeftShoulder1  8.91383 -12.0998 -49.8667
LeftArm  -7.09331 9.74294 -30.6726
LeftForeArm  53.106 -60.6299 -14.881
LeftHand  -0.244104 0.0205437 5.32207
RightShoulder  5.05842 8.16085 37.3461
RightArm  -20.3525 -24.6278 25.5409
RightForeArm  -4.22059 29.3173 6.581
RightHand  -0.955243 2.21393 -14.7419
LeftUpLeg  -9.64314 -0.242518 8.09495
LeftLeg  69.5402 1.09382 4.08826
LeftFoot  2.30205 0.708344 -6.07325
LeftToes  1.0186e-010 1.09309e-010 2.97394e-011
98
root  -13.765 39.1832 -7.85121 31.3031 -82.1756 -36.6102
RightUpLeg  -12.9997 -18.6885 7.20647
RightLeg  28.3438 -0.979873 -0.87279
RightFoot  -7.84435 0.184595 -7.74581
RightToes  4.07452e-010 0 -3.6325e-017
Spine  7.64054 -3.36428 9.80025
Spine1  7.08346 -2.98947 2.80749
HEad  -10.1922 -0.148921 -1.4504
LeftShoulder1  8.89611 -12.1071 -49.7443
LeftArm  -4.2696 10.1936 -30.1473
LeftForeArm  44.8986 -49.4334 -9.65398
LeftHand  -0.244104 0.0205437 5.32207
RightShoulder  5.26711 8.47025 37.9455
RightArm  -18.2249 -21.443 28.5679
RightForeArm  -7.99035 26.0071 5.98502
RightHand  -0.899862 2.00965 -14.2422
LeftUpLeg  -14.2715 -0.55534 6.52022
LeftLeg  66.7776 1.32333 4.12699
LeftFoot  -0.0671509 0.580568 -5.86861
LeftToes  1.0186e-010 1.09309e-010 2.97394e-011
99
root  -15.2887 39.8058 -7.91523 25.5822 -83.7561 -30.5271
RightUpLeg  -8.36486 -18.4919 4.85714
RightLeg  24.229 0.0685277 0.280539
RightFoot  -8.13898 0.129585 -6.60864
RightToes  4.07452e-010 0 -3.6325e-017
Spine  7.01211 -1.84996 9.53627
Spine1  6.62133 -1.17245 1.08253
HEad  -9.2739 -1.62994 -2.18399
LeftShoulder1  8.74069 -12.057 -49.0327
LeftArm  -1.43371 11.2441 -29.6889
LeftForeArm  38.104 -39.3617 -6.75863
LeftHand  -0.244104 0.0205437 5.32207
RightShoulder  5.45136 8.70579 38.5798
RightArm  -13.5174 -18.4733 30.5417
RightForeArm  -4.35636 25.7432 5.74572
RightHand  -0.749019 1.47119 -12.799
LeftUpLeg  -18.0428 -0.243859 4.61983
LeftLeg  60.7722 1.71732 3.90836
LeftFoot  -1.83735 0.46091 -5.41785
LeftToes  1.0186e-010 1.09309e-010 2.97394e-011
